# xmcd CD database file
#
# Track frame offsets:
#	150
#	12043
#	21115
#	35018
#	48703
#	61278
#	75382
#	89127
#	103207
#	117511
#	146652
#	176063
#	189691
#	206165
#	220787
#	236713
#	250062
#	267260
#	303423
#	313221
#
# Disc length: 4525 seconds
#
# Revision: 2
# Processed by: cddbd v1.5.1PL2 Copyright (c) Steve Scherf et al.
# Submitted via: CDex 1.50beta10
#
DISCID=2c11ab14
DTITLE=Various Artist - Jazz - The Best
DYEAR=2002
DGENRE=Jazz
TTITLE0=Fitzgerald , Ella - A Tisket, A Tasket
TTITLE1=Jarreau, Al - Ain't No Sunshine
TTITLE2=Armstrong, Louis - That Lucky Old Sun
TTITLE3=Washington, Dinah - Stormy Weather
TTITLE4=Cole, Nat King - Route 66
TTITLE5=Parker, Charlie - Night In Tunisia
TTITLE6=Reinhardt, Django - Nuages
TTITLE7=Holiday, Billie - Georgia On My Mind
TTITLE8=Ellington, Duke - I Don't Mean A Thing ( If It Ain't Got That Swing )
TTITLE9=Blakey, Art - Angel Eyes 
TTITLE10=Hampton, Lionel - Air Mail Special
TTITLE11=Davis, Miles - Moose The Mooch
TTITLE12=Basie, Count - One O'Clock Jump
TTITLE13=Goodman, Benny - Stompin' At The Savoy
TTITLE14=Miller, Glenn - In The Mood 
TTITLE15=Krupa, Gene - Drummin' Man 
TTITLE16=Vaughan, Sarah - When Sunny Get's Blue 
TTITLE17=Jamall, Ahmad - Poinciana
TTITLE18=Turrentine, Stanley - Wedding Bell Blues
TTITLE19=Hawkins, Coleman - Mood Indigo
EXTD=YEAR: 2002
EXTT0=
EXTT1=
EXTT2=
EXTT3=
EXTT4=
EXTT5=
EXTT6=
EXTT7=
EXTT8=
EXTT9=
EXTT10=
EXTT11=
EXTT12=
EXTT13=
EXTT14=
EXTT15=
EXTT16=
EXTT17=
EXTT18=
EXTT19=
PLAYORDER=
